solid 
 facet normal -9.912279e-01  1.878159e-17  1.321637e-01
   outer loop
     vertex -5.000000e+01 -5.000000e+01 -3.750000e+01
     vertex -4.000000e+01  4.000000e+01  3.750000e+01
     vertex -5.000000e+01  5.000000e+01 -3.750000e+01
   endloop
 endfacet
 facet normal -9.912279e-01  2.347699e-17  1.321637e-01
   outer loop
     vertex -4.000000e+01 -4.000000e+01  3.750000e+01
     vertex -4.000000e+01  4.000000e+01  3.750000e+01
     vertex -5.000000e+01 -5.000000e+01 -3.750000e+01
   endloop
 endfacet
 facet normal  0.000000e+00 -1.421085e-16 -1.000000e+00
   outer loop
     vertex  5.000000e+01 -5.000000e+01 -3.750000e+01
     vertex -5.000000e+01  5.000000e+01 -3.750000e+01
     vertex  5.000000e+01  5.000000e+01 -3.750000e+01
   endloop
 endfacet
 facet normal -0.000000e+00 -1.421085e-16 -1.000000e+00
   outer loop
     vertex  5.000000e+01 -5.000000e+01 -3.750000e+01
     vertex -5.000000e+01 -5.000000e+01 -3.750000e+01
     vertex -5.000000e+01  5.000000e+01 -3.750000e+01
   endloop
 endfacet
 facet normal  0.000000e+00 -9.912279e-01  1.321637e-01
   outer loop
     vertex -4.000000e+01 -4.000000e+01  3.750000e+01
     vertex -5.000000e+01 -5.000000e+01 -3.750000e+01
     vertex  5.000000e+01 -5.000000e+01 -3.750000e+01
   endloop
 endfacet
 facet normal  0.000000e+00 -9.912279e-01  1.321637e-01
   outer loop
     vertex -4.000000e+01 -4.000000e+01  3.750000e+01
     vertex  5.000000e+01 -5.000000e+01 -3.750000e+01
     vertex  4.000000e+01 -4.000000e+01  3.750000e+01
   endloop
 endfacet
 facet normal  3.552714e-15  0.000000e+00  1.000000e+00
   outer loop
     vertex -4.000000e+01 -4.000000e+01  3.750000e+01
     vertex -3.800000e+01 -3.800000e+01  3.750000e+01
     vertex -3.800000e+01  3.800000e+01  3.750000e+01
   endloop
 endfacet
 facet normal -3.375078e-15  1.776357e-16  1.000000e+00
   outer loop
     vertex -4.000000e+01 -4.000000e+01  3.750000e+01
     vertex -3.800000e+01  3.800000e+01  3.750000e+01
     vertex -4.000000e+01  4.000000e+01  3.750000e+01
   endloop
 endfacet
 facet normal  0.000000e+00  3.552714e-15  1.000000e+00
   outer loop
     vertex  3.800000e+01  3.800000e+01  3.750000e+01
     vertex  4.000000e+01  4.000000e+01  3.750000e+01
     vertex -4.000000e+01  4.000000e+01  3.750000e+01
   endloop
 endfacet
 facet normal  0.000000e+00  3.552714e-15  1.000000e+00
   outer loop
     vertex  3.800000e+01  3.800000e+01  3.750000e+01
     vertex -4.000000e+01  4.000000e+01  3.750000e+01
     vertex -3.800000e+01  3.800000e+01  3.750000e+01
   endloop
 endfacet
 facet normal  0.000000e+00  3.552714e-15  1.000000e+00
   outer loop
     vertex  4.000000e+01 -4.000000e+01  3.750000e+01
     vertex  3.800000e+01 -3.800000e+01  3.750000e+01
     vertex -3.800000e+01 -3.800000e+01  3.750000e+01
   endloop
 endfacet
 facet normal  0.000000e+00  3.552714e-15  1.000000e+00
   outer loop
     vertex  4.000000e+01 -4.000000e+01  3.750000e+01
     vertex -3.800000e+01 -3.800000e+01  3.750000e+01
     vertex -4.000000e+01 -4.000000e+01  3.750000e+01
   endloop
 endfacet
 facet normal  3.375078e-15  1.776357e-16  1.000000e+00
   outer loop
     vertex  4.000000e+01 -4.000000e+01  3.750000e+01
     vertex  4.000000e+01  4.000000e+01  3.750000e+01
     vertex  3.800000e+01  3.800000e+01  3.750000e+01
   endloop
 endfacet
 facet normal -3.552714e-15  0.000000e+00  1.000000e+00
   outer loop
     vertex  4.000000e+01 -4.000000e+01  3.750000e+01
     vertex  3.800000e+01  3.800000e+01  3.750000e+01
     vertex  3.800000e+01 -3.800000e+01  3.750000e+01
   endloop
 endfacet
 facet normal  0.000000e+00  9.912279e-01  1.321637e-01
   outer loop
     vertex -4.000000e+01  4.000000e+01  3.750000e+01
     vertex  5.000000e+01  5.000000e+01 -3.750000e+01
     vertex -5.000000e+01  5.000000e+01 -3.750000e+01
   endloop
 endfacet
 facet normal -0.000000e+00  9.912279e-01  1.321637e-01
   outer loop
     vertex -4.000000e+01  4.000000e+01  3.750000e+01
     vertex  4.000000e+01  4.000000e+01  3.750000e+01
     vertex  5.000000e+01  5.000000e+01 -3.750000e+01
   endloop
 endfacet
 facet normal  9.912279e-01  1.878159e-17  1.321637e-01
   outer loop
     vertex  5.000000e+01 -5.000000e+01 -3.750000e+01
     vertex  5.000000e+01  5.000000e+01 -3.750000e+01
     vertex  4.000000e+01  4.000000e+01  3.750000e+01
   endloop
 endfacet
 facet normal  9.912279e-01  2.347699e-17  1.321637e-01
   outer loop
     vertex  4.000000e+01 -4.000000e+01  3.750000e+01
     vertex  5.000000e+01 -5.000000e+01 -3.750000e+01
     vertex  4.000000e+01  4.000000e+01  3.750000e+01
   endloop
 endfacet
 facet normal  1.000000e+00  0.000000e+00  0.000000e+00
   outer loop
     vertex -3.800000e+01 -3.800000e+01  3.750000e+01
     vertex -3.800000e+01 -3.800000e+01 -3.550000e+01
     vertex -3.800000e+01  3.800000e+01 -3.550000e+01
   endloop
 endfacet
 facet normal  1.000000e+00 -0.000000e+00  0.000000e+00
   outer loop
     vertex -3.800000e+01 -3.800000e+01  3.750000e+01
     vertex -3.800000e+01  3.800000e+01 -3.550000e+01
     vertex -3.800000e+01  3.800000e+01  3.750000e+01
   endloop
 endfacet
 facet normal  0.000000e+00  1.000000e+00  0.000000e+00
   outer loop
     vertex  3.800000e+01 -3.800000e+01  3.750000e+01
     vertex  3.800000e+01 -3.800000e+01 -3.550000e+01
     vertex -3.800000e+01 -3.800000e+01 -3.550000e+01
   endloop
 endfacet
 facet normal  0.000000e+00  1.000000e+00  0.000000e+00
   outer loop
     vertex  3.800000e+01 -3.800000e+01  3.750000e+01
     vertex -3.800000e+01 -3.800000e+01 -3.550000e+01
     vertex -3.800000e+01 -3.800000e+01  3.750000e+01
   endloop
 endfacet
 facet normal -1.000000e+00  0.000000e+00  0.000000e+00
   outer loop
     vertex  3.800000e+01 -3.800000e+01  3.750000e+01
     vertex  3.800000e+01  3.800000e+01 -3.550000e+01
     vertex  3.800000e+01 -3.800000e+01 -3.550000e+01
   endloop
 endfacet
 facet normal -1.000000e+00  0.000000e+00  0.000000e+00
   outer loop
     vertex  3.800000e+01 -3.800000e+01  3.750000e+01
     vertex  3.800000e+01  3.800000e+01  3.750000e+01
     vertex  3.800000e+01  3.800000e+01 -3.550000e+01
   endloop
 endfacet
 facet normal  0.000000e+00 -1.000000e+00 -0.000000e+00
   outer loop
     vertex  3.800000e+01  3.800000e+01  3.750000e+01
     vertex -3.800000e+01  3.800000e+01 -3.550000e+01
     vertex  3.800000e+01  3.800000e+01 -3.550000e+01
   endloop
 endfacet
 facet normal -0.000000e+00 -1.000000e+00  0.000000e+00
   outer loop
     vertex  3.800000e+01  3.800000e+01  3.750000e+01
     vertex -3.800000e+01  3.800000e+01  3.750000e+01
     vertex -3.800000e+01  3.800000e+01 -3.550000e+01
   endloop
 endfacet
 facet normal  0.000000e+00  0.000000e+00  1.000000e+00
   outer loop
     vertex  3.800000e+01  3.800000e+01 -3.550000e+01
     vertex -3.800000e+01  3.800000e+01 -3.550000e+01
     vertex -3.800000e+01 -3.800000e+01 -3.550000e+01
   endloop
 endfacet
 facet normal  0.000000e+00  0.000000e+00  1.000000e+00
   outer loop
     vertex  3.800000e+01  3.800000e+01 -3.550000e+01
     vertex -3.800000e+01 -3.800000e+01 -3.550000e+01
     vertex  3.800000e+01 -3.800000e+01 -3.550000e+01
   endloop
 endfacet
 facet normal -1.321637e-01  0.000000e+00  9.912279e-01
   outer loop
     vertex  5.429532e+01 -5.000000e+00  5.616958e+00
     vertex  4.438304e+01  5.000000e+00  4.295321e+00
     vertex  4.438304e+01 -5.000000e+00  4.295321e+00
   endloop
 endfacet
 facet normal -1.321637e-01  0.000000e+00  9.912279e-01
   outer loop
     vertex  5.429532e+01 -5.000000e+00  5.616958e+00
     vertex  5.429532e+01  5.000000e+00  5.616958e+00
     vertex  4.438304e+01  5.000000e+00  4.295321e+00
   endloop
 endfacet
 facet normal  1.321637e-01  0.000000e+00 -9.912279e-01
   outer loop
     vertex  5.561696e+01 -5.000000e+00 -4.295321e+00
     vertex  4.570468e+01 -5.000000e+00 -5.616958e+00
     vertex  4.570468e+01  5.000000e+00 -5.616958e+00
   endloop
 endfacet
 facet normal  1.321637e-01  0.000000e+00 -9.912279e-01
   outer loop
     vertex  5.561696e+01 -5.000000e+00 -4.295321e+00
     vertex  4.570468e+01  5.000000e+00 -5.616958e+00
     vertex  5.561696e+01  5.000000e+00 -4.295321e+00
   endloop
 endfacet
 facet normal  0.000000e+00 -1.000000e+00  0.000000e+00
   outer loop
     vertex  4.570468e+01 -5.000000e+00 -5.616958e+00
     vertex  5.429532e+01 -5.000000e+00  5.616958e+00
     vertex  4.438304e+01 -5.000000e+00  4.295321e+00
   endloop
 endfacet
 facet normal -0.000000e+00 -1.000000e+00  0.000000e+00
   outer loop
     vertex  5.561696e+01 -5.000000e+00 -4.295321e+00
     vertex  5.429532e+01 -5.000000e+00  5.616958e+00
     vertex  4.570468e+01 -5.000000e+00 -5.616958e+00
   endloop
 endfacet
 facet normal  0.000000e+00  1.000000e+00 -0.000000e+00
   outer loop
     vertex  4.570468e+01  5.000000e+00 -5.616958e+00
     vertex  4.438304e+01  5.000000e+00  4.295321e+00
     vertex  5.429532e+01  5.000000e+00  5.616958e+00
   endloop
 endfacet
 facet normal  0.000000e+00  1.000000e+00  0.000000e+00
   outer loop
     vertex  5.561696e+01  5.000000e+00 -4.295321e+00
     vertex  4.570468e+01  5.000000e+00 -5.616958e+00
     vertex  5.429532e+01  5.000000e+00  5.616958e+00
   endloop
 endfacet
 facet normal -9.912279e-01  0.000000e+00 -1.321637e-01
   outer loop
     vertex  4.570468e+01  5.000000e+00 -5.616958e+00
     vertex  4.438304e+01 -5.000000e+00  4.295321e+00
     vertex  4.438304e+01  5.000000e+00  4.295321e+00
   endloop
 endfacet
 facet normal -9.912279e-01 -0.000000e+00 -1.321637e-01
   outer loop
     vertex  4.570468e+01  5.000000e+00 -5.616958e+00
     vertex  4.570468e+01 -5.000000e+00 -5.616958e+00
     vertex  4.438304e+01 -5.000000e+00  4.295321e+00
   endloop
 endfacet
 facet normal  9.912279e-01  0.000000e+00  1.321637e-01
   outer loop
     vertex  5.561696e+01  5.000000e+00 -4.295321e+00
     vertex  5.429532e+01  5.000000e+00  5.616958e+00
     vertex  5.429532e+01 -5.000000e+00  5.616958e+00
   endloop
 endfacet
 facet normal  9.912279e-01  0.000000e+00  1.321637e-01
   outer loop
     vertex  5.561696e+01  5.000000e+00 -4.295321e+00
     vertex  5.429532e+01 -5.000000e+00  5.616958e+00
     vertex  5.561696e+01 -5.000000e+00 -4.295321e+00
   endloop
 endfacet
endsolid
