solid 
 facet normal -9.662349e-01  0.000000e+00  2.576627e-01
   outer loop
     vertex -4.171605e+01  5.000000e+01  3.106483e+01
     vertex -6.000000e+01  7.500000e+01 -3.750000e+01
     vertex -6.000000e+01  5.000000e+01 -3.750000e+01
   endloop
 endfacet
 facet normal -9.662349e-01 -2.180811e-16  2.576627e-01
   outer loop
     vertex -4.000000e+01  5.500000e+01  3.750000e+01
     vertex -6.000000e+01  7.500000e+01 -3.750000e+01
     vertex -4.171605e+01  5.000000e+01  3.106483e+01
   endloop
 endfacet
 facet normal -9.662349e-01  0.000000e+00  2.576627e-01
   outer loop
     vertex -4.171605e+01  2.200000e+01  3.106483e+01
     vertex -4.000000e+01  5.500000e+01  3.750000e+01
     vertex -4.171605e+01  5.000000e+01  3.106483e+01
   endloop
 endfacet
 facet normal -9.662349e-01  0.000000e+00  2.576627e-01
   outer loop
     vertex -4.171605e+01  1.400000e+01  3.106483e+01
     vertex -6.000000e+01  2.200000e+01 -3.750000e+01
     vertex -6.000000e+01  1.400000e+01 -3.750000e+01
   endloop
 endfacet
 facet normal -9.662349e-01  0.000000e+00  2.576627e-01
   outer loop
     vertex -4.171605e+01  1.400000e+01  3.106483e+01
     vertex -4.171605e+01  2.200000e+01  3.106483e+01
     vertex -6.000000e+01  2.200000e+01 -3.750000e+01
   endloop
 endfacet
 facet normal -9.662349e-01  0.000000e+00  2.576627e-01
   outer loop
     vertex -4.171605e+01  1.400000e+01  3.106483e+01
     vertex -4.000000e+01  5.500000e+01  3.750000e+01
     vertex -4.171605e+01  2.200000e+01  3.106483e+01
   endloop
 endfacet
 facet normal -9.662349e-01  4.005268e-16  2.576627e-01
   outer loop
     vertex -4.171605e+01 -2.200000e+01  3.106483e+01
     vertex -6.000000e+01 -1.400000e+01 -3.750000e+01
     vertex -6.000000e+01 -2.200000e+01 -3.750000e+01
   endloop
 endfacet
 facet normal -9.662349e-01  0.000000e+00  2.576627e-01
   outer loop
     vertex -4.171605e+01 -2.200000e+01  3.106483e+01
     vertex -4.171605e+01 -1.400000e+01  3.106483e+01
     vertex -6.000000e+01 -1.400000e+01 -3.750000e+01
   endloop
 endfacet
 facet normal -9.662349e-01  0.000000e+00  2.576627e-01
   outer loop
     vertex -4.171605e+01 -5.000000e+01  3.106483e+01
     vertex -6.000000e+01 -5.000000e+01 -3.750000e+01
     vertex -6.000000e+01 -7.500000e+01 -3.750000e+01
   endloop
 endfacet
 facet normal -9.662349e-01  0.000000e+00  2.576627e-01
   outer loop
     vertex -4.000000e+01 -5.500000e+01  3.750000e+01
     vertex -4.171605e+01 -2.200000e+01  3.106483e+01
     vertex -4.171605e+01 -5.000000e+01  3.106483e+01
   endloop
 endfacet
 facet normal -9.662349e-01  0.000000e+00  2.576627e-01
   outer loop
     vertex -4.000000e+01 -5.500000e+01  3.750000e+01
     vertex -4.171605e+01 -1.400000e+01  3.106483e+01
     vertex -4.171605e+01 -2.200000e+01  3.106483e+01
   endloop
 endfacet
 facet normal -9.662349e-01 -1.090405e-16  2.576627e-01
   outer loop
     vertex -4.000000e+01 -5.500000e+01  3.750000e+01
     vertex -4.171605e+01 -5.000000e+01  3.106483e+01
     vertex -6.000000e+01 -7.500000e+01 -3.750000e+01
   endloop
 endfacet
 facet normal -9.662349e-01  3.328733e-17  2.576627e-01
   outer loop
     vertex -4.000000e+01  5.500000e+01  3.750000e+01
     vertex -4.171605e+01 -1.400000e+01  3.106483e+01
     vertex -4.000000e+01 -5.500000e+01  3.750000e+01
   endloop
 endfacet
 facet normal -9.662349e-01  2.095643e-16  2.576627e-01
   outer loop
     vertex -4.000000e+01  5.500000e+01  3.750000e+01
     vertex -4.171605e+01  1.400000e+01  3.106483e+01
     vertex -4.171605e+01 -1.400000e+01  3.106483e+01
   endloop
 endfacet
 facet normal -1.151329e-15  0.000000e+00 -1.000000e+00
   outer loop
     vertex -5.382850e+01  5.000000e+01 -3.750000e+01
     vertex -6.000000e+01  5.000000e+01 -3.750000e+01
     vertex -6.000000e+01  7.500000e+01 -3.750000e+01
   endloop
 endfacet
 facet normal  0.000000e+00  1.151329e-15 -1.000000e+00
   outer loop
     vertex -3.200000e+01  6.882850e+01 -3.750000e+01
     vertex -6.000000e+01  7.500000e+01 -3.750000e+01
     vertex -3.200000e+01  7.500000e+01 -3.750000e+01
   endloop
 endfacet
 facet normal -2.021181e-16  2.343222e-16 -1.000000e+00
   outer loop
     vertex -3.200000e+01  6.882850e+01 -3.750000e+01
     vertex -5.382850e+01  5.000000e+01 -3.750000e+01
     vertex -6.000000e+01  7.500000e+01 -3.750000e+01
   endloop
 endfacet
 facet normal  4.377781e-16 -5.075305e-16 -1.000000e+00
   outer loop
     vertex -5.382850e+01  2.200000e+01 -3.750000e+01
     vertex -5.382850e+01  5.000000e+01 -3.750000e+01
     vertex -3.200000e+01  6.882850e+01 -3.750000e+01
   endloop
 endfacet
 facet normal -0.000000e+00 -3.034659e-16 -1.000000e+00
   outer loop
     vertex -4.000000e+00  6.882850e+01 -3.750000e+01
     vertex -5.382850e+01  2.200000e+01 -3.750000e+01
     vertex -3.200000e+01  6.882850e+01 -3.750000e+01
   endloop
 endfacet
 facet normal  0.000000e+00  0.000000e+00 -1.000000e+00
   outer loop
     vertex -5.382850e+01  1.400000e+01 -3.750000e+01
     vertex -6.000000e+01  2.200000e+01 -3.750000e+01
     vertex -5.382850e+01  2.200000e+01 -3.750000e+01
   endloop
 endfacet
 facet normal  0.000000e+00  0.000000e+00 -1.000000e+00
   outer loop
     vertex -5.382850e+01  1.400000e+01 -3.750000e+01
     vertex -6.000000e+01  1.400000e+01 -3.750000e+01
     vertex -6.000000e+01  2.200000e+01 -3.750000e+01
   endloop
 endfacet
 facet normal -2.851953e-16  0.000000e+00 -1.000000e+00
   outer loop
     vertex -5.382850e+01  1.400000e+01 -3.750000e+01
     vertex -5.382850e+01  2.200000e+01 -3.750000e+01
     vertex -4.000000e+00  6.882850e+01 -3.750000e+01
   endloop
 endfacet
 facet normal  0.000000e+00  1.151329e-15 -1.000000e+00
   outer loop
     vertex  4.000000e+00  6.882850e+01 -3.750000e+01
     vertex -4.000000e+00  7.500000e+01 -3.750000e+01
     vertex  4.000000e+00  7.500000e+01 -3.750000e+01
   endloop
 endfacet
 facet normal  0.000000e+00  1.151329e-15 -1.000000e+00
   outer loop
     vertex  4.000000e+00  6.882850e+01 -3.750000e+01
     vertex -4.000000e+00  6.882850e+01 -3.750000e+01
     vertex -4.000000e+00  7.500000e+01 -3.750000e+01
   endloop
 endfacet
 facet normal -0.000000e+00 -2.591874e-16 -1.000000e+00
   outer loop
     vertex  4.000000e+00  6.882850e+01 -3.750000e+01
     vertex -5.382850e+01  1.400000e+01 -3.750000e+01
     vertex -4.000000e+00  6.882850e+01 -3.750000e+01
   endloop
 endfacet
 facet normal  0.000000e+00  0.000000e+00 -1.000000e+00
   outer loop
     vertex -5.382850e+01 -2.200000e+01 -3.750000e+01
     vertex -6.000000e+01 -1.400000e+01 -3.750000e+01
     vertex -5.382850e+01 -1.400000e+01 -3.750000e+01
   endloop
 endfacet
 facet normal -1.151329e-15 -8.881784e-16 -1.000000e+00
   outer loop
     vertex -5.382850e+01 -2.200000e+01 -3.750000e+01
     vertex -6.000000e+01 -2.200000e+01 -3.750000e+01
     vertex -6.000000e+01 -1.400000e+01 -3.750000e+01
   endloop
 endfacet
 facet normal  0.000000e+00  1.151329e-15 -1.000000e+00
   outer loop
     vertex  6.000000e+01  7.500000e+01 -3.750000e+01
     vertex  3.200000e+01  6.882850e+01 -3.750000e+01
     vertex  3.200000e+01  7.500000e+01 -3.750000e+01
   endloop
 endfacet
 facet normal  2.683673e-16 -6.624917e-17 -1.000000e+00
   outer loop
     vertex  5.382850e+01  5.000000e+01 -3.750000e+01
     vertex  3.200000e+01  6.882850e+01 -3.750000e+01
     vertex  6.000000e+01  7.500000e+01 -3.750000e+01
   endloop
 endfacet
 facet normal  0.000000e+00  0.000000e+00 -1.000000e+00
   outer loop
     vertex  6.000000e+01  5.000000e+01 -3.750000e+01
     vertex  5.382850e+01  5.000000e+01 -3.750000e+01
     vertex  6.000000e+01  7.500000e+01 -3.750000e+01
   endloop
 endfacet
 facet normal -1.151329e-15  0.000000e+00 -1.000000e+00
   outer loop
     vertex -6.000000e+01 -7.500000e+01 -3.750000e+01
     vertex -6.000000e+01 -5.000000e+01 -3.750000e+01
     vertex -5.382850e+01 -5.000000e+01 -3.750000e+01
   endloop
 endfacet
 facet normal  0.000000e+00 -3.034659e-16 -1.000000e+00
   outer loop
     vertex  5.382850e+01  2.200000e+01 -3.750000e+01
     vertex  4.000000e+00  6.882850e+01 -3.750000e+01
     vertex  3.200000e+01  6.882850e+01 -3.750000e+01
   endloop
 endfacet
 facet normal  1.066225e-16 -2.537653e-16 -1.000000e+00
   outer loop
     vertex  5.382850e+01  2.200000e+01 -3.750000e+01
     vertex  3.200000e+01  6.882850e+01 -3.750000e+01
     vertex  5.382850e+01  5.000000e+01 -3.750000e+01
   endloop
 endfacet
 facet normal  6.510230e-16  0.000000e+00 -1.000000e+00
   outer loop
     vertex -3.200000e+01 -6.882850e+01 -3.750000e+01
     vertex -5.382850e+01 -5.000000e+01 -3.750000e+01
     vertex -5.382850e+01 -2.200000e+01 -3.750000e+01
   endloop
 endfacet
 facet normal  3.346165e-16 -3.668205e-16 -1.000000e+00
   outer loop
     vertex -3.200000e+01 -6.882850e+01 -3.750000e+01
     vertex -6.000000e+01 -7.500000e+01 -3.750000e+01
     vertex -5.382850e+01 -5.000000e+01 -3.750000e+01
   endloop
 endfacet
 facet normal -0.000000e+00 -2.591874e-16 -1.000000e+00
   outer loop
     vertex  5.382850e+01  1.400000e+01 -3.750000e+01
     vertex -5.382850e+01  1.400000e+01 -3.750000e+01
     vertex  4.000000e+00  6.882850e+01 -3.750000e+01
   endloop
 endfacet
 facet normal  2.851953e-16  2.533043e-31 -1.000000e+00
   outer loop
     vertex  5.382850e+01  1.400000e+01 -3.750000e+01
     vertex  4.000000e+00  6.882850e+01 -3.750000e+01
     vertex  5.382850e+01  2.200000e+01 -3.750000e+01
   endloop
 endfacet
 facet normal  0.000000e+00  1.151329e-15 -1.000000e+00
   outer loop
     vertex -3.200000e+01 -7.500000e+01 -3.750000e+01
     vertex -6.000000e+01 -7.500000e+01 -3.750000e+01
     vertex -3.200000e+01 -6.882850e+01 -3.750000e+01
   endloop
 endfacet
 facet normal  0.000000e+00  0.000000e+00 -1.000000e+00
   outer loop
     vertex  6.000000e+01  1.400000e+01 -3.750000e+01
     vertex  5.382850e+01  1.400000e+01 -3.750000e+01
     vertex  5.382850e+01  2.200000e+01 -3.750000e+01
   endloop
 endfacet
 facet normal  0.000000e+00  0.000000e+00 -1.000000e+00
   outer loop
     vertex  6.000000e+01  1.400000e+01 -3.750000e+01
     vertex  5.382850e+01  2.200000e+01 -3.750000e+01
     vertex  6.000000e+01  2.200000e+01 -3.750000e+01
   endloop
 endfacet
 facet normal  2.851953e-16 -5.066087e-31 -1.000000e+00
   outer loop
     vertex -4.000000e+00 -6.882850e+01 -3.750000e+01
     vertex -5.382850e+01 -2.200000e+01 -3.750000e+01
     vertex -5.382850e+01 -1.400000e+01 -3.750000e+01
   endloop
 endfacet
 facet normal -0.000000e+00 -3.034659e-16 -1.000000e+00
   outer loop
     vertex -4.000000e+00 -6.882850e+01 -3.750000e+01
     vertex -3.200000e+01 -6.882850e+01 -3.750000e+01
     vertex -5.382850e+01 -2.200000e+01 -3.750000e+01
   endloop
 endfacet
 facet normal  0.000000e+00  0.000000e+00 -1.000000e+00
   outer loop
     vertex  5.382850e+01 -1.400000e+01 -3.750000e+01
     vertex -5.382850e+01 -1.400000e+01 -3.750000e+01
     vertex -5.382850e+01  1.400000e+01 -3.750000e+01
   endloop
 endfacet
 facet normal  0.000000e+00  0.000000e+00 -1.000000e+00
   outer loop
     vertex  5.382850e+01 -1.400000e+01 -3.750000e+01
     vertex -5.382850e+01  1.400000e+01 -3.750000e+01
     vertex  5.382850e+01  1.400000e+01 -3.750000e+01
   endloop
 endfacet
 facet normal -0.000000e+00 -2.591874e-16 -1.000000e+00
   outer loop
     vertex  4.000000e+00 -6.882850e+01 -3.750000e+01
     vertex -4.000000e+00 -6.882850e+01 -3.750000e+01
     vertex -5.382850e+01 -1.400000e+01 -3.750000e+01
   endloop
 endfacet
 facet normal  0.000000e+00 -2.591874e-16 -1.000000e+00
   outer loop
     vertex  4.000000e+00 -6.882850e+01 -3.750000e+01
     vertex -5.382850e+01 -1.400000e+01 -3.750000e+01
     vertex  5.382850e+01 -1.400000e+01 -3.750000e+01
   endloop
 endfacet
 facet normal  6.921066e-16 -8.881784e-16 -1.000000e+00
   outer loop
     vertex  5.382850e+01 -2.200000e+01 -3.750000e+01
     vertex  4.000000e+00 -6.882850e+01 -3.750000e+01
     vertex  5.382850e+01 -1.400000e+01 -3.750000e+01
   endloop
 endfacet
 facet normal  0.000000e+00  1.151329e-15 -1.000000e+00
   outer loop
     vertex  4.000000e+00 -7.500000e+01 -3.750000e+01
     vertex -4.000000e+00 -7.500000e+01 -3.750000e+01
     vertex -4.000000e+00 -6.882850e+01 -3.750000e+01
   endloop
 endfacet
 facet normal  0.000000e+00  1.151329e-15 -1.000000e+00
   outer loop
     vertex  4.000000e+00 -7.500000e+01 -3.750000e+01
     vertex -4.000000e+00 -6.882850e+01 -3.750000e+01
     vertex  4.000000e+00 -6.882850e+01 -3.750000e+01
   endloop
 endfacet
 facet normal -0.000000e+00 -8.881784e-16 -1.000000e+00
   outer loop
     vertex  6.000000e+01 -2.200000e+01 -3.750000e+01
     vertex  5.382850e+01 -2.200000e+01 -3.750000e+01
     vertex  5.382850e+01 -1.400000e+01 -3.750000e+01
   endloop
 endfacet
 facet normal  0.000000e+00 -8.881784e-16 -1.000000e+00
   outer loop
     vertex  6.000000e+01 -2.200000e+01 -3.750000e+01
     vertex  5.382850e+01 -1.400000e+01 -3.750000e+01
     vertex  6.000000e+01 -1.400000e+01 -3.750000e+01
   endloop
 endfacet
 facet normal -0.000000e+00 -1.517330e-16 -1.000000e+00
   outer loop
     vertex  3.200000e+01 -6.882850e+01 -3.750000e+01
     vertex  4.000000e+00 -6.882850e+01 -3.750000e+01
     vertex  5.382850e+01 -2.200000e+01 -3.750000e+01
   endloop
 endfacet
 facet normal -3.255115e-16  0.000000e+00 -1.000000e+00
   outer loop
     vertex  5.382850e+01 -5.000000e+01 -3.750000e+01
     vertex  3.200000e+01 -6.882850e+01 -3.750000e+01
     vertex  5.382850e+01 -2.200000e+01 -3.750000e+01
   endloop
 endfacet
 facet normal  0.000000e+00  1.151329e-15 -1.000000e+00
   outer loop
     vertex  6.000000e+01 -7.500000e+01 -3.750000e+01
     vertex  3.200000e+01 -7.500000e+01 -3.750000e+01
     vertex  3.200000e+01 -6.882850e+01 -3.750000e+01
   endloop
 endfacet
 facet normal  0.000000e+00  0.000000e+00 -1.000000e+00
   outer loop
     vertex  6.000000e+01 -7.500000e+01 -3.750000e+01
     vertex  5.382850e+01 -5.000000e+01 -3.750000e+01
     vertex  6.000000e+01 -5.000000e+01 -3.750000e+01
   endloop
 endfacet
 facet normal -2.683673e-16 -6.624917e-17 -1.000000e+00
   outer loop
     vertex  6.000000e+01 -7.500000e+01 -3.750000e+01
     vertex  3.200000e+01 -6.882850e+01 -3.750000e+01
     vertex  5.382850e+01 -5.000000e+01 -3.750000e+01
   endloop
 endfacet
 facet normal  0.000000e+00 -1.000000e+00  0.000000e+00
   outer loop
     vertex -5.382850e+01  5.000000e+01 -3.750000e+01
     vertex -3.595427e+01  5.000000e+01  2.952835e+01
     vertex -4.171605e+01  5.000000e+01  3.106483e+01
   endloop
 endfacet
 facet normal  0.000000e+00 -1.000000e+00  0.000000e+00
   outer loop
     vertex -5.382850e+01  5.000000e+01 -3.750000e+01
     vertex -4.171605e+01  5.000000e+01  3.106483e+01
     vertex -6.000000e+01  5.000000e+01 -3.750000e+01
   endloop
 endfacet
 facet normal -2.576627e-01  0.000000e+00 -9.662349e-01
   outer loop
     vertex -4.171605e+01  2.200000e+01  3.106483e+01
     vertex -4.171605e+01  5.000000e+01  3.106483e+01
     vertex -3.595427e+01  5.000000e+01  2.952835e+01
   endloop
 endfacet
 facet normal -2.576627e-01  0.000000e+00 -9.662349e-01
   outer loop
     vertex -4.171605e+01  2.200000e+01  3.106483e+01
     vertex -3.595427e+01  5.000000e+01  2.952835e+01
     vertex -3.595427e+01  2.200000e+01  2.952835e+01
   endloop
 endfacet
 facet normal  0.000000e+00  1.000000e+00  0.000000e+00
   outer loop
     vertex -5.382850e+01  2.200000e+01 -3.750000e+01
     vertex -4.171605e+01  2.200000e+01  3.106483e+01
     vertex -3.595427e+01  2.200000e+01  2.952835e+01
   endloop
 endfacet
 facet normal  0.000000e+00  1.000000e+00 -0.000000e+00
   outer loop
     vertex -5.382850e+01  2.200000e+01 -3.750000e+01
     vertex -6.000000e+01  2.200000e+01 -3.750000e+01
     vertex -4.171605e+01  2.200000e+01  3.106483e+01
   endloop
 endfacet
 facet normal  0.000000e+00 -1.000000e+00  0.000000e+00
   outer loop
     vertex -5.382850e+01  1.400000e+01 -3.750000e+01
     vertex -3.595427e+01  1.400000e+01  2.952835e+01
     vertex -4.171605e+01  1.400000e+01  3.106483e+01
   endloop
 endfacet
 facet normal  0.000000e+00 -1.000000e+00  0.000000e+00
   outer loop
     vertex -5.382850e+01  1.400000e+01 -3.750000e+01
     vertex -4.171605e+01  1.400000e+01  3.106483e+01
     vertex -6.000000e+01  1.400000e+01 -3.750000e+01
   endloop
 endfacet
 facet normal -2.576627e-01  0.000000e+00 -9.662349e-01
   outer loop
     vertex -3.595427e+01 -1.400000e+01  2.952835e+01
     vertex -4.171605e+01  1.400000e+01  3.106483e+01
     vertex -3.595427e+01  1.400000e+01  2.952835e+01
   endloop
 endfacet
 facet normal -2.576627e-01  1.879843e-16 -9.662349e-01
   outer loop
     vertex -4.171605e+01 -1.400000e+01  3.106483e+01
     vertex -4.171605e+01  1.400000e+01  3.106483e+01
     vertex -3.595427e+01 -1.400000e+01  2.952835e+01
   endloop
 endfacet
 facet normal  0.000000e+00  1.000000e+00  0.000000e+00
   outer loop
     vertex -5.382850e+01 -1.400000e+01 -3.750000e+01
     vertex -4.171605e+01 -1.400000e+01  3.106483e+01
     vertex -3.595427e+01 -1.400000e+01  2.952835e+01
   endloop
 endfacet
 facet normal  0.000000e+00  1.000000e+00 -0.000000e+00
   outer loop
     vertex -5.382850e+01 -1.400000e+01 -3.750000e+01
     vertex -6.000000e+01 -1.400000e+01 -3.750000e+01
     vertex -4.171605e+01 -1.400000e+01  3.106483e+01
   endloop
 endfacet
 facet normal  0.000000e+00 -1.000000e+00  0.000000e+00
   outer loop
     vertex -5.382850e+01 -2.200000e+01 -3.750000e+01
     vertex -3.595427e+01 -2.200000e+01  2.952835e+01
     vertex -4.171605e+01 -2.200000e+01  3.106483e+01
   endloop
 endfacet
 facet normal  0.000000e+00 -1.000000e+00  0.000000e+00
   outer loop
     vertex -5.382850e+01 -2.200000e+01 -3.750000e+01
     vertex -4.171605e+01 -2.200000e+01  3.106483e+01
     vertex -6.000000e+01 -2.200000e+01 -3.750000e+01
   endloop
 endfacet
 facet normal -2.576627e-01  0.000000e+00 -9.662349e-01
   outer loop
     vertex -4.171605e+01 -5.000000e+01  3.106483e+01
     vertex -4.171605e+01 -2.200000e+01  3.106483e+01
     vertex -3.595427e+01 -2.200000e+01  2.952835e+01
   endloop
 endfacet
 facet normal -2.576627e-01  6.383367e-17 -9.662349e-01
   outer loop
     vertex -4.171605e+01 -5.000000e+01  3.106483e+01
     vertex -3.595427e+01 -2.200000e+01  2.952835e+01
     vertex -3.595427e+01 -5.000000e+01  2.952835e+01
   endloop
 endfacet
 facet normal  0.000000e+00  1.000000e+00  0.000000e+00
   outer loop
     vertex -5.382850e+01 -5.000000e+01 -3.750000e+01
     vertex -4.171605e+01 -5.000000e+01  3.106483e+01
     vertex -3.595427e+01 -5.000000e+01  2.952835e+01
   endloop
 endfacet
 facet normal  0.000000e+00  1.000000e+00 -0.000000e+00
   outer loop
     vertex -5.382850e+01 -5.000000e+01 -3.750000e+01
     vertex -6.000000e+01 -5.000000e+01 -3.750000e+01
     vertex -4.171605e+01 -5.000000e+01  3.106483e+01
   endloop
 endfacet
 facet normal  0.000000e+00 -9.662349e-01  2.576627e-01
   outer loop
     vertex  3.200000e+01 -5.671605e+01  3.106483e+01
     vertex  3.200000e+01 -7.500000e+01 -3.750000e+01
     vertex  6.000000e+01 -7.500000e+01 -3.750000e+01
   endloop
 endfacet
 facet normal -6.595081e-16 -9.662349e-01  2.576627e-01
   outer loop
     vertex  3.200000e+01 -5.671605e+01  3.106483e+01
     vertex  6.000000e+01 -7.500000e+01 -3.750000e+01
     vertex  4.000000e+01 -5.500000e+01  3.750000e+01
   endloop
 endfacet
 facet normal  0.000000e+00 -9.662349e-01  2.576627e-01
   outer loop
     vertex  4.000000e+00 -5.671605e+01  3.106483e+01
     vertex  3.200000e+01 -5.671605e+01  3.106483e+01
     vertex  4.000000e+01 -5.500000e+01  3.750000e+01
   endloop
 endfacet
 facet normal  0.000000e+00 -9.662349e-01  2.576627e-01
   outer loop
     vertex -4.000000e+00 -5.671605e+01  3.106483e+01
     vertex -4.000000e+00 -7.500000e+01 -3.750000e+01
     vertex  4.000000e+00 -7.500000e+01 -3.750000e+01
   endloop
 endfacet
 facet normal  0.000000e+00 -9.662349e-01  2.576627e-01
   outer loop
     vertex -4.000000e+00 -5.671605e+01  3.106483e+01
     vertex  4.000000e+00 -7.500000e+01 -3.750000e+01
     vertex  4.000000e+00 -5.671605e+01  3.106483e+01
   endloop
 endfacet
 facet normal  0.000000e+00 -9.662349e-01  2.576627e-01
   outer loop
     vertex -4.000000e+00 -5.671605e+01  3.106483e+01
     vertex  4.000000e+00 -5.671605e+01  3.106483e+01
     vertex  4.000000e+01 -5.500000e+01  3.750000e+01
   endloop
 endfacet
 facet normal  0.000000e+00 -9.662349e-01  2.576627e-01
   outer loop
     vertex -3.200000e+01 -5.671605e+01  3.106483e+01
     vertex -6.000000e+01 -7.500000e+01 -3.750000e+01
     vertex -3.200000e+01 -7.500000e+01 -3.750000e+01
   endloop
 endfacet
 facet normal  0.000000e+00 -9.662349e-01  2.576627e-01
   outer loop
     vertex -4.000000e+01 -5.500000e+01  3.750000e+01
     vertex -3.200000e+01 -5.671605e+01  3.106483e+01
     vertex -4.000000e+00 -5.671605e+01  3.106483e+01
   endloop
 endfacet
 facet normal  6.783512e-16 -9.662349e-01  2.576627e-01
   outer loop
     vertex -4.000000e+01 -5.500000e+01  3.750000e+01
     vertex -6.000000e+01 -7.500000e+01 -3.750000e+01
     vertex -3.200000e+01 -5.671605e+01  3.106483e+01
   endloop
 endfacet
 facet normal  0.000000e+00 -9.662349e-01  2.576627e-01
   outer loop
     vertex -4.000000e+01 -5.500000e+01  3.750000e+01
     vertex -4.000000e+00 -5.671605e+01  3.106483e+01
     vertex  4.000000e+01 -5.500000e+01  3.750000e+01
   endloop
 endfacet
 facet normal  0.000000e+00  1.421085e-15  1.000000e+00
   outer loop
     vertex  3.500000e+01  5.000000e+01  3.750000e+01
     vertex  4.000000e+01  5.500000e+01  3.750000e+01
     vertex -4.000000e+01  5.500000e+01  3.750000e+01
   endloop
 endfacet
 facet normal  0.000000e+00  1.421085e-15  1.000000e+00
   outer loop
     vertex  3.500000e+01  5.000000e+01  3.750000e+01
     vertex -4.000000e+01  5.500000e+01  3.750000e+01
     vertex -3.500000e+01  5.000000e+01  3.750000e+01
   endloop
 endfacet
 facet normal  1.421085e-15  0.000000e+00  1.000000e+00
   outer loop
     vertex -4.000000e+01 -5.500000e+01  3.750000e+01
     vertex -3.500000e+01 -5.000000e+01  3.750000e+01
     vertex -3.500000e+01  5.000000e+01  3.750000e+01
   endloop
 endfacet
 facet normal -1.291896e-15  1.291896e-16  1.000000e+00
   outer loop
     vertex -4.000000e+01 -5.500000e+01  3.750000e+01
     vertex -3.500000e+01  5.000000e+01  3.750000e+01
     vertex -4.000000e+01  5.500000e+01  3.750000e+01
   endloop
 endfacet
 facet normal  0.000000e+00  1.421085e-15  1.000000e+00
   outer loop
     vertex  4.000000e+01 -5.500000e+01  3.750000e+01
     vertex  3.500000e+01 -5.000000e+01  3.750000e+01
     vertex -3.500000e+01 -5.000000e+01  3.750000e+01
   endloop
 endfacet
 facet normal  0.000000e+00  1.421085e-15  1.000000e+00
   outer loop
     vertex  4.000000e+01 -5.500000e+01  3.750000e+01
     vertex -3.500000e+01 -5.000000e+01  3.750000e+01
     vertex -4.000000e+01 -5.500000e+01  3.750000e+01
   endloop
 endfacet
 facet normal  1.291896e-15  1.291896e-16  1.000000e+00
   outer loop
     vertex  4.000000e+01 -5.500000e+01  3.750000e+01
     vertex  4.000000e+01  5.500000e+01  3.750000e+01
     vertex  3.500000e+01  5.000000e+01  3.750000e+01
   endloop
 endfacet
 facet normal -1.421085e-15  0.000000e+00  1.000000e+00
   outer loop
     vertex  4.000000e+01 -5.500000e+01  3.750000e+01
     vertex  3.500000e+01  5.000000e+01  3.750000e+01
     vertex  3.500000e+01 -5.000000e+01  3.750000e+01
   endloop
 endfacet
 facet normal  0.000000e+00  9.662349e-01  2.576627e-01
   outer loop
     vertex  3.200000e+01  5.671605e+01  3.106483e+01
     vertex  6.000000e+01  7.500000e+01 -3.750000e+01
     vertex  3.200000e+01  7.500000e+01 -3.750000e+01
   endloop
 endfacet
 facet normal -9.421544e-17  9.662349e-01  2.576627e-01
   outer loop
     vertex  3.200000e+01  5.671605e+01  3.106483e+01
     vertex  4.000000e+01  5.500000e+01  3.750000e+01
     vertex  6.000000e+01  7.500000e+01 -3.750000e+01
   endloop
 endfacet
 facet normal -0.000000e+00  9.662349e-01  2.576627e-01
   outer loop
     vertex  4.000000e+00  5.671605e+01  3.106483e+01
     vertex  4.000000e+01  5.500000e+01  3.750000e+01
     vertex  3.200000e+01  5.671605e+01  3.106483e+01
   endloop
 endfacet
 facet normal  0.000000e+00  9.662349e-01  2.576627e-01
   outer loop
     vertex -4.000000e+00  5.671605e+01  3.106483e+01
     vertex  4.000000e+00  7.500000e+01 -3.750000e+01
     vertex -4.000000e+00  7.500000e+01 -3.750000e+01
   endloop
 endfacet
 facet normal -0.000000e+00  9.662349e-01  2.576627e-01
   outer loop
     vertex -4.000000e+00  5.671605e+01  3.106483e+01
     vertex  4.000000e+00  5.671605e+01  3.106483e+01
     vertex  4.000000e+00  7.500000e+01 -3.750000e+01
   endloop
 endfacet
 facet normal  0.000000e+00  9.662349e-01  2.576627e-01
   outer loop
     vertex -3.200000e+01  5.671605e+01  3.106483e+01
     vertex -3.200000e+01  7.500000e+01 -3.750000e+01
     vertex -6.000000e+01  7.500000e+01 -3.750000e+01
   endloop
 endfacet
 facet normal  0.000000e+00  9.662349e-01  2.576627e-01
   outer loop
     vertex -4.000000e+01  5.500000e+01  3.750000e+01
     vertex -4.000000e+00  5.671605e+01  3.106483e+01
     vertex -3.200000e+01  5.671605e+01  3.106483e+01
   endloop
 endfacet
 facet normal  0.000000e+00  9.662349e-01  2.576627e-01
   outer loop
     vertex -4.000000e+01  5.500000e+01  3.750000e+01
     vertex  4.000000e+00  5.671605e+01  3.106483e+01
     vertex -4.000000e+00  5.671605e+01  3.106483e+01
   endloop
 endfacet
 facet normal -0.000000e+00  9.662349e-01  2.576627e-01
   outer loop
     vertex -4.000000e+01  5.500000e+01  3.750000e+01
     vertex  4.000000e+01  5.500000e+01  3.750000e+01
     vertex  4.000000e+00  5.671605e+01  3.106483e+01
   endloop
 endfacet
 facet normal  7.537235e-17  9.662349e-01  2.576627e-01
   outer loop
     vertex -4.000000e+01  5.500000e+01  3.750000e+01
     vertex -3.200000e+01  5.671605e+01  3.106483e+01
     vertex -6.000000e+01  7.500000e+01 -3.750000e+01
   endloop
 endfacet
 facet normal  1.000000e+00  0.000000e+00  0.000000e+00
   outer loop
     vertex -3.200000e+01  6.882850e+01 -3.750000e+01
     vertex -3.200000e+01  5.671605e+01  3.106483e+01
     vertex -3.200000e+01  5.095427e+01  2.952835e+01
   endloop
 endfacet
 facet normal  1.000000e+00  0.000000e+00  0.000000e+00
   outer loop
     vertex -3.200000e+01  7.500000e+01 -3.750000e+01
     vertex -3.200000e+01  5.671605e+01  3.106483e+01
     vertex -3.200000e+01  6.882850e+01 -3.750000e+01
   endloop
 endfacet
 facet normal  0.000000e+00  9.662349e-01  2.576627e-01
   outer loop
     vertex -4.000000e+00  6.882850e+01 -3.750000e+01
     vertex -3.200000e+01  5.095427e+01  2.952835e+01
     vertex -4.000000e+00  5.095427e+01  2.952835e+01
   endloop
 endfacet
 facet normal  0.000000e+00  9.662349e-01  2.576627e-01
   outer loop
     vertex -4.000000e+00  6.882850e+01 -3.750000e+01
     vertex -3.200000e+01  6.882850e+01 -3.750000e+01
     vertex -3.200000e+01  5.095427e+01  2.952835e+01
   endloop
 endfacet
 facet normal -1.000000e+00  0.000000e+00  0.000000e+00
   outer loop
     vertex -4.000000e+00  6.882850e+01 -3.750000e+01
     vertex -4.000000e+00  5.095427e+01  2.952835e+01
     vertex -4.000000e+00  5.671605e+01  3.106483e+01
   endloop
 endfacet
 facet normal -1.000000e+00 -0.000000e+00  0.000000e+00
   outer loop
     vertex -4.000000e+00  7.500000e+01 -3.750000e+01
     vertex -4.000000e+00  6.882850e+01 -3.750000e+01
     vertex -4.000000e+00  5.671605e+01  3.106483e+01
   endloop
 endfacet
 facet normal  1.000000e+00  0.000000e+00  0.000000e+00
   outer loop
     vertex  4.000000e+00  6.882850e+01 -3.750000e+01
     vertex  4.000000e+00  5.671605e+01  3.106483e+01
     vertex  4.000000e+00  5.095427e+01  2.952835e+01
   endloop
 endfacet
 facet normal  1.000000e+00  0.000000e+00  0.000000e+00
   outer loop
     vertex  4.000000e+00  7.500000e+01 -3.750000e+01
     vertex  4.000000e+00  5.671605e+01  3.106483e+01
     vertex  4.000000e+00  6.882850e+01 -3.750000e+01
   endloop
 endfacet
 facet normal  0.000000e+00  9.662349e-01  2.576627e-01
   outer loop
     vertex  3.200000e+01  6.882850e+01 -3.750000e+01
     vertex  4.000000e+00  5.095427e+01  2.952835e+01
     vertex  3.200000e+01  5.095427e+01  2.952835e+01
   endloop
 endfacet
 facet normal  0.000000e+00  9.662349e-01  2.576627e-01
   outer loop
     vertex  3.200000e+01  6.882850e+01 -3.750000e+01
     vertex  4.000000e+00  6.882850e+01 -3.750000e+01
     vertex  4.000000e+00  5.095427e+01  2.952835e+01
   endloop
 endfacet
 facet normal -1.000000e+00  0.000000e+00  0.000000e+00
   outer loop
     vertex  3.200000e+01  6.882850e+01 -3.750000e+01
     vertex  3.200000e+01  5.095427e+01  2.952835e+01
     vertex  3.200000e+01  5.671605e+01  3.106483e+01
   endloop
 endfacet
 facet normal -1.000000e+00 -0.000000e+00  0.000000e+00
   outer loop
     vertex  3.200000e+01  7.500000e+01 -3.750000e+01
     vertex  3.200000e+01  6.882850e+01 -3.750000e+01
     vertex  3.200000e+01  5.671605e+01  3.106483e+01
   endloop
 endfacet
 facet normal  9.662349e-01  0.000000e+00  2.576627e-01
   outer loop
     vertex  4.171605e+01  5.000000e+01  3.106483e+01
     vertex  6.000000e+01  5.000000e+01 -3.750000e+01
     vertex  6.000000e+01  7.500000e+01 -3.750000e+01
   endloop
 endfacet
 facet normal  9.662349e-01 -1.090405e-15  2.576627e-01
   outer loop
     vertex  4.000000e+01  5.500000e+01  3.750000e+01
     vertex  4.171605e+01  5.000000e+01  3.106483e+01
     vertex  6.000000e+01  7.500000e+01 -3.750000e+01
   endloop
 endfacet
 facet normal  9.662349e-01  2.451969e-16  2.576627e-01
   outer loop
     vertex  4.171605e+01  2.200000e+01  3.106483e+01
     vertex  4.171605e+01  5.000000e+01  3.106483e+01
     vertex  4.000000e+01  5.500000e+01  3.750000e+01
   endloop
 endfacet
 facet normal  9.662349e-01  0.000000e+00  2.576627e-01
   outer loop
     vertex  4.171605e+01  1.400000e+01  3.106483e+01
     vertex  6.000000e+01  1.400000e+01 -3.750000e+01
     vertex  6.000000e+01  2.200000e+01 -3.750000e+01
   endloop
 endfacet
 facet normal  9.662349e-01 -0.000000e+00  2.576627e-01
   outer loop
     vertex  4.171605e+01  1.400000e+01  3.106483e+01
     vertex  6.000000e+01  2.200000e+01 -3.750000e+01
     vertex  4.171605e+01  2.200000e+01  3.106483e+01
   endloop
 endfacet
 facet normal  9.662349e-01 -0.000000e+00  2.576627e-01
   outer loop
     vertex  4.171605e+01  1.400000e+01  3.106483e+01
     vertex  4.171605e+01  2.200000e+01  3.106483e+01
     vertex  4.000000e+01  5.500000e+01  3.750000e+01
   endloop
 endfacet
 facet normal  9.662349e-01  0.000000e+00  2.576627e-01
   outer loop
     vertex  4.171605e+01 -2.200000e+01  3.106483e+01
     vertex  6.000000e+01 -2.200000e+01 -3.750000e+01
     vertex  6.000000e+01 -1.400000e+01 -3.750000e+01
   endloop
 endfacet
 facet normal  9.662349e-01 -0.000000e+00  2.576627e-01
   outer loop
     vertex  4.171605e+01 -2.200000e+01  3.106483e+01
     vertex  6.000000e+01 -1.400000e+01 -3.750000e+01
     vertex  4.171605e+01 -1.400000e+01  3.106483e+01
   endloop
 endfacet
 facet normal  9.662349e-01  0.000000e+00  2.576627e-01
   outer loop
     vertex  4.171605e+01 -5.000000e+01  3.106483e+01
     vertex  6.000000e+01 -7.500000e+01 -3.750000e+01
     vertex  6.000000e+01 -5.000000e+01 -3.750000e+01
   endloop
 endfacet
 facet normal  9.662349e-01  0.000000e+00  2.576627e-01
   outer loop
     vertex  4.000000e+01 -5.500000e+01  3.750000e+01
     vertex  4.171605e+01 -5.000000e+01  3.106483e+01
     vertex  4.171605e+01 -2.200000e+01  3.106483e+01
   endloop
 endfacet
 facet normal  9.662349e-01  0.000000e+00  2.576627e-01
   outer loop
     vertex  4.000000e+01 -5.500000e+01  3.750000e+01
     vertex  4.171605e+01 -2.200000e+01  3.106483e+01
     vertex  4.171605e+01 -1.400000e+01  3.106483e+01
   endloop
 endfacet
 facet normal  9.662349e-01 -5.452027e-16  2.576627e-01
   outer loop
     vertex  4.000000e+01 -5.500000e+01  3.750000e+01
     vertex  6.000000e+01 -7.500000e+01 -3.750000e+01
     vertex  4.171605e+01 -5.000000e+01  3.106483e+01
   endloop
 endfacet
 facet normal  9.662349e-01  3.328733e-17  2.576627e-01
   outer loop
     vertex  4.000000e+01  5.500000e+01  3.750000e+01
     vertex  4.000000e+01 -5.500000e+01  3.750000e+01
     vertex  4.171605e+01 -1.400000e+01  3.106483e+01
   endloop
 endfacet
 facet normal  9.662349e-01  2.762438e-16  2.576627e-01
   outer loop
     vertex  4.000000e+01  5.500000e+01  3.750000e+01
     vertex  4.171605e+01 -1.400000e+01  3.106483e+01
     vertex  4.171605e+01  1.400000e+01  3.106483e+01
   endloop
 endfacet
 facet normal  0.000000e+00 -1.000000e+00  0.000000e+00
   outer loop
     vertex  4.171605e+01  5.000000e+01  3.106483e+01
     vertex  5.382850e+01  5.000000e+01 -3.750000e+01
     vertex  6.000000e+01  5.000000e+01 -3.750000e+01
   endloop
 endfacet
 facet normal  0.000000e+00 -1.000000e+00  0.000000e+00
   outer loop
     vertex  3.595427e+01  5.000000e+01  2.952835e+01
     vertex  5.382850e+01  5.000000e+01 -3.750000e+01
     vertex  4.171605e+01  5.000000e+01  3.106483e+01
   endloop
 endfacet
 facet normal  9.662349e-01  0.000000e+00  2.576627e-01
   outer loop
     vertex  3.595427e+01  2.200000e+01  2.952835e+01
     vertex  5.382850e+01  2.200000e+01 -3.750000e+01
     vertex  5.382850e+01  5.000000e+01 -3.750000e+01
   endloop
 endfacet
 facet normal  9.662349e-01  2.451969e-16  2.576627e-01
   outer loop
     vertex  3.595427e+01  2.200000e+01  2.952835e+01
     vertex  5.382850e+01  5.000000e+01 -3.750000e+01
     vertex  3.595427e+01  5.000000e+01  2.952835e+01
   endloop
 endfacet
 facet normal  0.000000e+00  1.000000e+00  0.000000e+00
   outer loop
     vertex  4.171605e+01  2.200000e+01  3.106483e+01
     vertex  6.000000e+01  2.200000e+01 -3.750000e+01
     vertex  5.382850e+01  2.200000e+01 -3.750000e+01
   endloop
 endfacet
 facet normal -0.000000e+00  1.000000e+00  0.000000e+00
   outer loop
     vertex  3.595427e+01  2.200000e+01  2.952835e+01
     vertex  4.171605e+01  2.200000e+01  3.106483e+01
     vertex  5.382850e+01  2.200000e+01 -3.750000e+01
   endloop
 endfacet
 facet normal  0.000000e+00 -1.000000e+00  0.000000e+00
   outer loop
     vertex  4.171605e+01  1.400000e+01  3.106483e+01
     vertex  5.382850e+01  1.400000e+01 -3.750000e+01
     vertex  6.000000e+01  1.400000e+01 -3.750000e+01
   endloop
 endfacet
 facet normal  0.000000e+00 -1.000000e+00  0.000000e+00
   outer loop
     vertex  3.595427e+01  1.400000e+01  2.952835e+01
     vertex  5.382850e+01  1.400000e+01 -3.750000e+01
     vertex  4.171605e+01  1.400000e+01  3.106483e+01
   endloop
 endfacet
 facet normal  9.662349e-01  2.341188e-16  2.576627e-01
   outer loop
     vertex  3.595427e+01  1.400000e+01  2.952835e+01
     vertex  5.382850e+01 -1.400000e+01 -3.750000e+01
     vertex  5.382850e+01  1.400000e+01 -3.750000e+01
   endloop
 endfacet
 facet normal  9.662349e-01 -0.000000e+00  2.576627e-01
   outer loop
     vertex  3.595427e+01 -1.400000e+01  2.952835e+01
     vertex  5.382850e+01 -1.400000e+01 -3.750000e+01
     vertex  3.595427e+01  1.400000e+01  2.952835e+01
   endloop
 endfacet
 facet normal  0.000000e+00  1.000000e+00  0.000000e+00
   outer loop
     vertex  4.171605e+01 -1.400000e+01  3.106483e+01
     vertex  6.000000e+01 -1.400000e+01 -3.750000e+01
     vertex  5.382850e+01 -1.400000e+01 -3.750000e+01
   endloop
 endfacet
 facet normal -0.000000e+00  1.000000e+00  0.000000e+00
   outer loop
     vertex  3.595427e+01 -1.400000e+01  2.952835e+01
     vertex  4.171605e+01 -1.400000e+01  3.106483e+01
     vertex  5.382850e+01 -1.400000e+01 -3.750000e+01
   endloop
 endfacet
 facet normal  0.000000e+00 -1.000000e+00  0.000000e+00
   outer loop
     vertex  4.171605e+01 -2.200000e+01  3.106483e+01
     vertex  5.382850e+01 -2.200000e+01 -3.750000e+01
     vertex  6.000000e+01 -2.200000e+01 -3.750000e+01
   endloop
 endfacet
 facet normal  0.000000e+00 -1.000000e+00  0.000000e+00
   outer loop
     vertex  3.595427e+01 -2.200000e+01  2.952835e+01
     vertex  5.382850e+01 -2.200000e+01 -3.750000e+01
     vertex  4.171605e+01 -2.200000e+01  3.106483e+01
   endloop
 endfacet
 facet normal  9.662349e-01  0.000000e+00  2.576627e-01
   outer loop
     vertex  3.595427e+01 -2.200000e+01  2.952835e+01
     vertex  5.382850e+01 -5.000000e+01 -3.750000e+01
     vertex  5.382850e+01 -2.200000e+01 -3.750000e+01
   endloop
 endfacet
 facet normal  9.662349e-01 -0.000000e+00  2.576627e-01
   outer loop
     vertex  3.595427e+01 -5.000000e+01  2.952835e+01
     vertex  5.382850e+01 -5.000000e+01 -3.750000e+01
     vertex  3.595427e+01 -2.200000e+01  2.952835e+01
   endloop
 endfacet
 facet normal  0.000000e+00  1.000000e+00  0.000000e+00
   outer loop
     vertex  4.171605e+01 -5.000000e+01  3.106483e+01
     vertex  6.000000e+01 -5.000000e+01 -3.750000e+01
     vertex  5.382850e+01 -5.000000e+01 -3.750000e+01
   endloop
 endfacet
 facet normal -0.000000e+00  1.000000e+00  0.000000e+00
   outer loop
     vertex  3.595427e+01 -5.000000e+01  2.952835e+01
     vertex  4.171605e+01 -5.000000e+01  3.106483e+01
     vertex  5.382850e+01 -5.000000e+01 -3.750000e+01
   endloop
 endfacet
 facet normal -1.000000e+00  0.000000e+00  0.000000e+00
   outer loop
     vertex  3.200000e+01 -6.882850e+01 -3.750000e+01
     vertex  3.200000e+01 -5.671605e+01  3.106483e+01
     vertex  3.200000e+01 -5.095427e+01  2.952835e+01
   endloop
 endfacet
 facet normal -1.000000e+00 -0.000000e+00  0.000000e+00
   outer loop
     vertex  3.200000e+01 -6.882850e+01 -3.750000e+01
     vertex  3.200000e+01 -7.500000e+01 -3.750000e+01
     vertex  3.200000e+01 -5.671605e+01  3.106483e+01
   endloop
 endfacet
 facet normal  0.000000e+00 -9.662349e-01  2.576627e-01
   outer loop
     vertex  3.200000e+01 -6.882850e+01 -3.750000e+01
     vertex  3.200000e+01 -5.095427e+01  2.952835e+01
     vertex  4.000000e+00 -5.095427e+01  2.952835e+01
   endloop
 endfacet
 facet normal  0.000000e+00 -9.662349e-01  2.576627e-01
   outer loop
     vertex  3.200000e+01 -6.882850e+01 -3.750000e+01
     vertex  4.000000e+00 -5.095427e+01  2.952835e+01
     vertex  4.000000e+00 -6.882850e+01 -3.750000e+01
   endloop
 endfacet
 facet normal  1.000000e+00  0.000000e+00  0.000000e+00
   outer loop
     vertex  4.000000e+00 -6.882850e+01 -3.750000e+01
     vertex  4.000000e+00 -5.095427e+01  2.952835e+01
     vertex  4.000000e+00 -5.671605e+01  3.106483e+01
   endloop
 endfacet
 facet normal  1.000000e+00  0.000000e+00 -0.000000e+00
   outer loop
     vertex  4.000000e+00 -6.882850e+01 -3.750000e+01
     vertex  4.000000e+00 -5.671605e+01  3.106483e+01
     vertex  4.000000e+00 -7.500000e+01 -3.750000e+01
   endloop
 endfacet
 facet normal -1.000000e+00  0.000000e+00  0.000000e+00
   outer loop
     vertex -4.000000e+00 -6.882850e+01 -3.750000e+01
     vertex -4.000000e+00 -5.671605e+01  3.106483e+01
     vertex -4.000000e+00 -5.095427e+01  2.952835e+01
   endloop
 endfacet
 facet normal -1.000000e+00 -0.000000e+00  0.000000e+00
   outer loop
     vertex -4.000000e+00 -6.882850e+01 -3.750000e+01
     vertex -4.000000e+00 -7.500000e+01 -3.750000e+01
     vertex -4.000000e+00 -5.671605e+01  3.106483e+01
   endloop
 endfacet
 facet normal  0.000000e+00 -9.662349e-01  2.576627e-01
   outer loop
     vertex -4.000000e+00 -6.882850e+01 -3.750000e+01
     vertex -4.000000e+00 -5.095427e+01  2.952835e+01
     vertex -3.200000e+01 -5.095427e+01  2.952835e+01
   endloop
 endfacet
 facet normal  0.000000e+00 -9.662349e-01  2.576627e-01
   outer loop
     vertex -4.000000e+00 -6.882850e+01 -3.750000e+01
     vertex -3.200000e+01 -5.095427e+01  2.952835e+01
     vertex -3.200000e+01 -6.882850e+01 -3.750000e+01
   endloop
 endfacet
 facet normal  1.000000e+00  0.000000e+00  0.000000e+00
   outer loop
     vertex -3.200000e+01 -6.882850e+01 -3.750000e+01
     vertex -3.200000e+01 -5.095427e+01  2.952835e+01
     vertex -3.200000e+01 -5.671605e+01  3.106483e+01
   endloop
 endfacet
 facet normal  1.000000e+00  0.000000e+00 -0.000000e+00
   outer loop
     vertex -3.200000e+01 -6.882850e+01 -3.750000e+01
     vertex -3.200000e+01 -5.671605e+01  3.106483e+01
     vertex -3.200000e+01 -7.500000e+01 -3.750000e+01
   endloop
 endfacet
 facet normal -9.662349e-01  2.341188e-16  2.576627e-01
   outer loop
     vertex -5.382850e+01 -5.000000e+01 -3.750000e+01
     vertex -3.595427e+01 -5.000000e+01  2.952835e+01
     vertex -3.595427e+01 -2.200000e+01  2.952835e+01
   endloop
 endfacet
 facet normal -9.662349e-01  0.000000e+00  2.576627e-01
   outer loop
     vertex -5.382850e+01 -5.000000e+01 -3.750000e+01
     vertex -3.595427e+01 -2.200000e+01  2.952835e+01
     vertex -5.382850e+01 -2.200000e+01 -3.750000e+01
   endloop
 endfacet
 facet normal -9.662349e-01  0.000000e+00  2.576627e-01
   outer loop
     vertex -5.382850e+01  1.400000e+01 -3.750000e+01
     vertex -3.595427e+01 -1.400000e+01  2.952835e+01
     vertex -3.595427e+01  1.400000e+01  2.952835e+01
   endloop
 endfacet
 facet normal -9.662349e-01  4.903937e-16  2.576627e-01
   outer loop
     vertex -5.382850e+01 -1.400000e+01 -3.750000e+01
     vertex -3.595427e+01 -1.400000e+01  2.952835e+01
     vertex -5.382850e+01  1.400000e+01 -3.750000e+01
   endloop
 endfacet
 facet normal -9.662349e-01  0.000000e+00  2.576627e-01
   outer loop
     vertex -5.382850e+01  2.200000e+01 -3.750000e+01
     vertex -3.595427e+01  2.200000e+01  2.952835e+01
     vertex -3.595427e+01  5.000000e+01  2.952835e+01
   endloop
 endfacet
 facet normal -9.662349e-01 -1.144252e-16  2.576627e-01
   outer loop
     vertex -5.382850e+01  2.200000e+01 -3.750000e+01
     vertex -3.595427e+01  5.000000e+01  2.952835e+01
     vertex -5.382850e+01  5.000000e+01 -3.750000e+01
   endloop
 endfacet
 facet normal -0.000000e+00 -2.576627e-01 -9.662349e-01
   outer loop
     vertex  3.200000e+01 -5.671605e+01  3.106483e+01
     vertex  4.000000e+00 -5.671605e+01  3.106483e+01
     vertex  4.000000e+00 -5.095427e+01  2.952835e+01
   endloop
 endfacet
 facet normal  0.000000e+00 -2.576627e-01 -9.662349e-01
   outer loop
     vertex  3.200000e+01 -5.671605e+01  3.106483e+01
     vertex  4.000000e+00 -5.095427e+01  2.952835e+01
     vertex  3.200000e+01 -5.095427e+01  2.952835e+01
   endloop
 endfacet
 facet normal -0.000000e+00 -2.576627e-01 -9.662349e-01
   outer loop
     vertex -4.000000e+00 -5.671605e+01  3.106483e+01
     vertex -3.200000e+01 -5.671605e+01  3.106483e+01
     vertex -3.200000e+01 -5.095427e+01  2.952835e+01
   endloop
 endfacet
 facet normal  0.000000e+00 -2.576627e-01 -9.662349e-01
   outer loop
     vertex -4.000000e+00 -5.671605e+01  3.106483e+01
     vertex -3.200000e+01 -5.095427e+01  2.952835e+01
     vertex -4.000000e+00 -5.095427e+01  2.952835e+01
   endloop
 endfacet
 facet normal  1.000000e+00  0.000000e+00  0.000000e+00
   outer loop
     vertex -3.500000e+01 -5.000000e+01  3.750000e+01
     vertex -3.500000e+01 -5.000000e+01 -3.250000e+01
     vertex -3.500000e+01  5.000000e+01 -3.250000e+01
   endloop
 endfacet
 facet normal  1.000000e+00 -0.000000e+00  0.000000e+00
   outer loop
     vertex -3.500000e+01 -5.000000e+01  3.750000e+01
     vertex -3.500000e+01  5.000000e+01 -3.250000e+01
     vertex -3.500000e+01  5.000000e+01  3.750000e+01
   endloop
 endfacet
 facet normal  0.000000e+00  1.000000e+00  0.000000e+00
   outer loop
     vertex  3.500000e+01 -5.000000e+01  3.750000e+01
     vertex  3.500000e+01 -5.000000e+01 -3.250000e+01
     vertex -3.500000e+01 -5.000000e+01 -3.250000e+01
   endloop
 endfacet
 facet normal  0.000000e+00  1.000000e+00  0.000000e+00
   outer loop
     vertex  3.500000e+01 -5.000000e+01  3.750000e+01
     vertex -3.500000e+01 -5.000000e+01 -3.250000e+01
     vertex -3.500000e+01 -5.000000e+01  3.750000e+01
   endloop
 endfacet
 facet normal -1.000000e+00  0.000000e+00  0.000000e+00
   outer loop
     vertex  3.500000e+01 -5.000000e+01  3.750000e+01
     vertex  3.500000e+01  5.000000e+01 -3.250000e+01
     vertex  3.500000e+01 -5.000000e+01 -3.250000e+01
   endloop
 endfacet
 facet normal -1.000000e+00  0.000000e+00  0.000000e+00
   outer loop
     vertex  3.500000e+01 -5.000000e+01  3.750000e+01
     vertex  3.500000e+01  5.000000e+01  3.750000e+01
     vertex  3.500000e+01  5.000000e+01 -3.250000e+01
   endloop
 endfacet
 facet normal  0.000000e+00 -1.000000e+00 -0.000000e+00
   outer loop
     vertex  3.500000e+01  5.000000e+01  3.750000e+01
     vertex -3.500000e+01  5.000000e+01 -3.250000e+01
     vertex  3.500000e+01  5.000000e+01 -3.250000e+01
   endloop
 endfacet
 facet normal -0.000000e+00 -1.000000e+00  0.000000e+00
   outer loop
     vertex  3.500000e+01  5.000000e+01  3.750000e+01
     vertex -3.500000e+01  5.000000e+01  3.750000e+01
     vertex -3.500000e+01  5.000000e+01 -3.250000e+01
   endloop
 endfacet
 facet normal  0.000000e+00  2.576627e-01 -9.662349e-01
   outer loop
     vertex  3.200000e+01  5.095427e+01  2.952835e+01
     vertex  4.000000e+00  5.095427e+01  2.952835e+01
     vertex  4.000000e+00  5.671605e+01  3.106483e+01
   endloop
 endfacet
 facet normal  0.000000e+00  2.576627e-01 -9.662349e-01
   outer loop
     vertex  3.200000e+01  5.095427e+01  2.952835e+01
     vertex  4.000000e+00  5.671605e+01  3.106483e+01
     vertex  3.200000e+01  5.671605e+01  3.106483e+01
   endloop
 endfacet
 facet normal  0.000000e+00  2.576627e-01 -9.662349e-01
   outer loop
     vertex -4.000000e+00  5.095427e+01  2.952835e+01
     vertex -3.200000e+01  5.095427e+01  2.952835e+01
     vertex -3.200000e+01  5.671605e+01  3.106483e+01
   endloop
 endfacet
 facet normal  0.000000e+00  2.576627e-01 -9.662349e-01
   outer loop
     vertex -4.000000e+00  5.095427e+01  2.952835e+01
     vertex -3.200000e+01  5.671605e+01  3.106483e+01
     vertex -4.000000e+00  5.671605e+01  3.106483e+01
   endloop
 endfacet
 facet normal  2.576627e-01  6.538583e-17 -9.662349e-01
   outer loop
     vertex  3.595427e+01  2.200000e+01  2.952835e+01
     vertex  3.595427e+01  5.000000e+01  2.952835e+01
     vertex  4.171605e+01  5.000000e+01  3.106483e+01
   endloop
 endfacet
 facet normal  2.576627e-01  6.538583e-17 -9.662349e-01
   outer loop
     vertex  4.171605e+01  2.200000e+01  3.106483e+01
     vertex  3.595427e+01  2.200000e+01  2.952835e+01
     vertex  4.171605e+01  5.000000e+01  3.106483e+01
   endloop
 endfacet
 facet normal  2.576627e-01 -5.721260e-17 -9.662349e-01
   outer loop
     vertex  4.171605e+01 -1.400000e+01  3.106483e+01
     vertex  3.595427e+01  1.400000e+01  2.952835e+01
     vertex  4.171605e+01  1.400000e+01  3.106483e+01
   endloop
 endfacet
 facet normal  2.576627e-01  0.000000e+00 -9.662349e-01
   outer loop
     vertex  4.171605e+01 -1.400000e+01  3.106483e+01
     vertex  3.595427e+01 -1.400000e+01  2.952835e+01
     vertex  3.595427e+01  1.400000e+01  2.952835e+01
   endloop
 endfacet
 facet normal  2.576627e-01  0.000000e+00 -9.662349e-01
   outer loop
     vertex  4.171605e+01 -5.000000e+01  3.106483e+01
     vertex  3.595427e+01 -2.200000e+01  2.952835e+01
     vertex  4.171605e+01 -2.200000e+01  3.106483e+01
   endloop
 endfacet
 facet normal  2.576627e-01  0.000000e+00 -9.662349e-01
   outer loop
     vertex  4.171605e+01 -5.000000e+01  3.106483e+01
     vertex  3.595427e+01 -5.000000e+01  2.952835e+01
     vertex  3.595427e+01 -2.200000e+01  2.952835e+01
   endloop
 endfacet
 facet normal  0.000000e+00  0.000000e+00  1.000000e+00
   outer loop
     vertex  3.500000e+01  5.000000e+01 -3.250000e+01
     vertex -3.500000e+01  5.000000e+01 -3.250000e+01
     vertex -3.500000e+01 -5.000000e+01 -3.250000e+01
   endloop
 endfacet
 facet normal  0.000000e+00  0.000000e+00  1.000000e+00
   outer loop
     vertex  3.500000e+01  5.000000e+01 -3.250000e+01
     vertex -3.500000e+01 -5.000000e+01 -3.250000e+01
     vertex  3.500000e+01 -5.000000e+01 -3.250000e+01
   endloop
 endfacet
endsolid
