solid 
 facet normal -9.912279e-01  1.878159e-17  1.321637e-01
   outer loop
     vertex -5.000000e+01 -5.000000e+01 -3.750000e+01
     vertex -4.000000e+01  4.000000e+01  3.750000e+01
     vertex -5.000000e+01  5.000000e+01 -3.750000e+01
   endloop
 endfacet
 facet normal -9.912279e-01  2.347699e-17  1.321637e-01
   outer loop
     vertex -4.000000e+01 -4.000000e+01  3.750000e+01
     vertex -4.000000e+01  4.000000e+01  3.750000e+01
     vertex -5.000000e+01 -5.000000e+01 -3.750000e+01
   endloop
 endfacet
 facet normal  9.912279e-01  1.878159e-17  1.321637e-01
   outer loop
     vertex  5.000000e+01 -5.000000e+01 -3.750000e+01
     vertex  5.000000e+01  5.000000e+01 -3.750000e+01
     vertex  4.000000e+01  4.000000e+01  3.750000e+01
   endloop
 endfacet
 facet normal  9.912279e-01  2.347699e-17  1.321637e-01
   outer loop
     vertex  4.000000e+01 -4.000000e+01  3.750000e+01
     vertex  5.000000e+01 -5.000000e+01 -3.750000e+01
     vertex  4.000000e+01  4.000000e+01  3.750000e+01
   endloop
 endfacet
 facet normal  0.000000e+00 -1.421085e-16 -1.000000e+00
   outer loop
     vertex  5.000000e+01 -5.000000e+01 -3.750000e+01
     vertex -5.000000e+01  5.000000e+01 -3.750000e+01
     vertex  5.000000e+01  5.000000e+01 -3.750000e+01
   endloop
 endfacet
 facet normal -0.000000e+00 -1.421085e-16 -1.000000e+00
   outer loop
     vertex  5.000000e+01 -5.000000e+01 -3.750000e+01
     vertex -5.000000e+01 -5.000000e+01 -3.750000e+01
     vertex -5.000000e+01  5.000000e+01 -3.750000e+01
   endloop
 endfacet
 facet normal  0.000000e+00  1.776357e-16  1.000000e+00
   outer loop
     vertex  4.000000e+01 -4.000000e+01  3.750000e+01
     vertex  4.000000e+01  4.000000e+01  3.750000e+01
     vertex -4.000000e+01  4.000000e+01  3.750000e+01
   endloop
 endfacet
 facet normal  0.000000e+00  1.776357e-16  1.000000e+00
   outer loop
     vertex  4.000000e+01 -4.000000e+01  3.750000e+01
     vertex -4.000000e+01  4.000000e+01  3.750000e+01
     vertex -4.000000e+01 -4.000000e+01  3.750000e+01
   endloop
 endfacet
 facet normal  0.000000e+00  9.912279e-01  1.321637e-01
   outer loop
     vertex -4.000000e+01  4.000000e+01  3.750000e+01
     vertex  5.000000e+01  5.000000e+01 -3.750000e+01
     vertex -5.000000e+01  5.000000e+01 -3.750000e+01
   endloop
 endfacet
 facet normal -0.000000e+00  9.912279e-01  1.321637e-01
   outer loop
     vertex -4.000000e+01  4.000000e+01  3.750000e+01
     vertex  4.000000e+01  4.000000e+01  3.750000e+01
     vertex  5.000000e+01  5.000000e+01 -3.750000e+01
   endloop
 endfacet
 facet normal  0.000000e+00 -9.912279e-01  1.321637e-01
   outer loop
     vertex -4.000000e+01 -4.000000e+01  3.750000e+01
     vertex -5.000000e+01 -5.000000e+01 -3.750000e+01
     vertex  5.000000e+01 -5.000000e+01 -3.750000e+01
   endloop
 endfacet
 facet normal  0.000000e+00 -9.912279e-01  1.321637e-01
   outer loop
     vertex -4.000000e+01 -4.000000e+01  3.750000e+01
     vertex  5.000000e+01 -5.000000e+01 -3.750000e+01
     vertex  4.000000e+01 -4.000000e+01  3.750000e+01
   endloop
 endfacet
endsolid
